<?xml version="1.0" standalone="no"?>
<!DOCTYPE svg PUBLIC "-//W3C//DTD SVG 20010904//EN"
 "http://www.w3.org/TR/2001/REC-SVG-20010904/DTD/svg10.dtd">
<svg version="1.0" xmlns="http://www.w3.org/2000/svg"
 width="512.000000pt" height="512.000000pt" viewBox="0 0 512.000000 512.000000"
 preserveAspectRatio="xMidYMid meet">
<metadata>
Created by potrace 1.11, written by Peter Selinger 2001-2013
</metadata>
<g transform="translate(0.000000,512.000000) scale(0.100000,-0.100000)"
fill="#000000" stroke="none">
<path d="M1403 4890 c-78 -26 -161 -99 -199 -175 l-26 -55 -29 20 c-48 35
-134 68 -220 86 -302 61 -612 -143 -685 -452 -20 -85 -14 -234 12 -313 l18
-54 -24 -16 c-58 -37 -122 -108 -150 -165 -87 -176 -52 -360 96 -494 93 -85
147 -105 279 -100 87 3 108 8 166 36 121 58 208 177 231 315 l10 64 62 11 c33
6 99 30 146 53 102 50 207 150 258 246 41 77 72 197 72 277 l0 61 78 -3 c60
-3 90 1 134 18 75 28 150 96 185 168 25 51 28 68 28 157 0 116 -13 150 -90
227 -95 96 -226 129 -352 88z"/>
<path d="M3547 4899 c-95 -22 -190 -101 -233 -192 -19 -41 -24 -69 -24 -129 0
-109 27 -177 99 -249 76 -75 146 -102 254 -97 l77 3 0 -62 c0 -216 131 -424
330 -522 47 -23 112 -47 146 -53 l60 -11 12 -69 c17 -96 59 -174 131 -240 88
-82 147 -103 286 -103 103 0 113 2 164 30 128 71 210 181 230 313 24 153 -45
313 -174 402 l-42 29 19 57 c68 202 9 435 -151 595 -186 186 -452 229 -686
112 -27 -14 -58 -32 -67 -40 -15 -13 -19 -10 -44 42 -70 143 -233 220 -387
184z"/>
<path d="M3285 3691 c-63 -38 -84 -90 -85 -203 l0 -58 -72 0 c-124 0 -188 -48
-196 -146 -9 -105 60 -164 191 -164 l74 0 5 -89 c6 -109 27 -149 93 -181 55
-27 111 -20 156 17 48 40 59 73 59 168 l0 85 88 0 c70 0 93 4 121 21 88 53
110 143 56 226 -27 41 -89 63 -182 63 l-83 0 0 88 c0 99 -16 138 -72 172 -42
26 -113 26 -153 1z"/>
<path d="M1643 3623 c-64 -22 -137 -94 -175 -171 -32 -64 -33 -71 -33 -187 0
-109 2 -125 26 -176 55 -117 150 -187 265 -197 162 -13 293 100 331 284 39
193 -49 386 -203 443 -64 25 -150 26 -211 4z"/>
<path d="M2392 3161 c-311 -77 -531 -355 -533 -673 -1 -111 12 -182 47 -270
109 -267 364 -438 654 -438 191 0 358 68 491 200 264 261 286 647 54 942 -90
114 -248 212 -393 243 -96 20 -229 18 -320 -4z"/>
<path d="M1092 1959 c-115 -57 -162 -190 -108 -305 28 -61 190 -227 316 -325
300 -233 653 -376 1039 -420 145 -16 434 -7 581 19 418 75 790 270 1089 571
111 113 151 176 151 245 0 131 -102 236 -231 236 -49 0 -71 -8 -190 -69 -259
-134 -498 -211 -799 -258 -164 -25 -597 -25 -760 0 -306 48 -544 126 -808 262
-110 57 -132 65 -181 65 -37 0 -71 -7 -99 -21z"/>
</g>
</svg>
